<mxfile host="app.diagrams.net" modified="2022-04-18T12:39:23.517Z" agent="5.0 (Macintosh; Intel Mac OS X 10_15_7) AppleWebKit/537.36 (KHTML, like Gecko) Chrome/100.0.4896.88 Safari/537.36" etag="o-i_bJRJteoKbcZBE1tY" version="17.4.5" type="github">
  <diagram id="ClWLAPvfIvwGukn5o-0z" name="Page-1">
    <mxGraphModel dx="2148" dy="809" grid="1" gridSize="10" guides="1" tooltips="1" connect="1" arrows="1" fold="1" page="1" pageScale="1" pageWidth="850" pageHeight="1100" math="0" shadow="0">
      <root>
        <mxCell id="0" />
        <mxCell id="1" parent="0" />
        <mxCell id="VwNAfn6jYMPkoOhHDSCv-6" value="MetricServer via WSServer" style="rounded=0;whiteSpace=wrap;html=1;" parent="1" vertex="1">
          <mxGeometry x="379.7" y="740" width="120" height="60" as="geometry" />
        </mxCell>
        <mxCell id="9_87h270WvveJxzQN95r-9" value="" style="group" parent="1" vertex="1" connectable="0">
          <mxGeometry x="-230" y="30" width="1070" height="663.13" as="geometry" />
        </mxCell>
        <mxCell id="9_87h270WvveJxzQN95r-19" value="" style="shape=ext;double=1;rounded=0;whiteSpace=wrap;html=1;" parent="9_87h270WvveJxzQN95r-9" vertex="1">
          <mxGeometry x="100" width="965.42" height="663.13" as="geometry" />
        </mxCell>
        <mxCell id="pnGsnYiNcxj166RtXO6O-42" value="" style="group" vertex="1" connectable="0" parent="9_87h270WvveJxzQN95r-9">
          <mxGeometry x="4.58" y="87.935" width="250.54489304863492" height="51.254999999999995" as="geometry" />
        </mxCell>
        <mxCell id="9_87h270WvveJxzQN95r-3" value="" style="strokeWidth=2;outlineConnect=0;dashed=0;align=center;fontSize=8;fillColor=#c0f5a9;verticalLabelPosition=bottom;verticalAlign=top;shape=mxgraph.eip.envelope_wrapper;" parent="pnGsnYiNcxj166RtXO6O-42" vertex="1">
          <mxGeometry width="40.54489304863492" height="22.78" as="geometry" />
        </mxCell>
        <mxCell id="9_87h270WvveJxzQN95r-6" value="" style="strokeWidth=2;outlineConnect=0;dashed=0;align=center;fontSize=8;fillColor=#c0f5a9;verticalLabelPosition=bottom;verticalAlign=top;shape=mxgraph.eip.envelope_wrapper;" parent="pnGsnYiNcxj166RtXO6O-42" vertex="1">
          <mxGeometry y="28.474999999999994" width="40.54489304863492" height="22.78" as="geometry" />
        </mxCell>
        <mxCell id="9_87h270WvveJxzQN95r-7" value="Gauge(memory, memory_usg, CPU)" style="text;html=1;align=center;verticalAlign=middle;resizable=0;points=[];autosize=1;strokeColor=none;fillColor=none;" parent="pnGsnYiNcxj166RtXO6O-42" vertex="1">
          <mxGeometry x="40.54489304863492" width="210" height="20" as="geometry" />
        </mxCell>
        <mxCell id="9_87h270WvveJxzQN95r-8" value="Timer (httpStartStop)&lt;br&gt;" style="text;html=1;align=center;verticalAlign=middle;resizable=0;points=[];autosize=1;strokeColor=none;fillColor=none;" parent="pnGsnYiNcxj166RtXO6O-42" vertex="1">
          <mxGeometry x="40.54489304863492" y="28.474999999999994" width="130" height="20" as="geometry" />
        </mxCell>
        <mxCell id="VwNAfn6jYMPkoOhHDSCv-11" value="&lt;b&gt;AppManager&lt;/b&gt;" style="shape=process;whiteSpace=wrap;html=1;backgroundOutline=1;" parent="9_87h270WvveJxzQN95r-9" vertex="1">
          <mxGeometry x="600" y="139.1866666666667" width="243.75" height="93.33333333333333" as="geometry" />
        </mxCell>
        <mxCell id="9_87h270WvveJxzQN95r-20" value="Autoscaler - Metrics Gateway" style="text;html=1;align=center;verticalAlign=middle;resizable=0;points=[];autosize=1;strokeColor=none;fillColor=none;" parent="9_87h270WvveJxzQN95r-9" vertex="1">
          <mxGeometry x="880" y="10" width="170" height="20" as="geometry" />
        </mxCell>
        <mxCell id="9_87h270WvveJxzQN95r-43" value="" style="edgeStyle=orthogonalEdgeStyle;rounded=0;orthogonalLoop=1;jettySize=auto;html=1;fontFamily=Helvetica;fontColor=#000000;exitX=1;exitY=0.25;exitDx=0;exitDy=0;entryX=0;entryY=0.75;entryDx=0;entryDy=0;" parent="1" source="9_87h270WvveJxzQN95r-25" target="VwNAfn6jYMPkoOhHDSCv-1" edge="1">
          <mxGeometry relative="1" as="geometry">
            <mxPoint x="230" y="352" as="targetPoint" />
          </mxGeometry>
        </mxCell>
        <mxCell id="pnGsnYiNcxj166RtXO6O-5" style="edgeStyle=orthogonalEdgeStyle;rounded=0;orthogonalLoop=1;jettySize=auto;html=1;exitX=1;exitY=0.5;exitDx=0;exitDy=0;entryX=-0.003;entryY=0.883;entryDx=0;entryDy=0;entryPerimeter=0;" edge="1" parent="1" source="9_87h270WvveJxzQN95r-25" target="VwNAfn6jYMPkoOhHDSCv-2">
          <mxGeometry relative="1" as="geometry" />
        </mxCell>
        <mxCell id="pnGsnYiNcxj166RtXO6O-13" value="" style="group" vertex="1" connectable="0" parent="1">
          <mxGeometry x="-30" y="399.9999999999999" width="320" height="105.54000000000008" as="geometry" />
        </mxCell>
        <mxCell id="9_87h270WvveJxzQN95r-44" value="" style="group" parent="pnGsnYiNcxj166RtXO6O-13" vertex="1" connectable="0">
          <mxGeometry width="320" height="93.32999999999997" as="geometry" />
        </mxCell>
        <mxCell id="9_87h270WvveJxzQN95r-48" value="" style="group" parent="9_87h270WvveJxzQN95r-44" vertex="1" connectable="0">
          <mxGeometry y="3.33" width="310" height="89.99999999999997" as="geometry" />
        </mxCell>
        <mxCell id="9_87h270WvveJxzQN95r-25" value="&lt;b&gt;Dispatcher&lt;/b&gt;" style="rounded=0;whiteSpace=wrap;html=1;" parent="9_87h270WvveJxzQN95r-48" vertex="1">
          <mxGeometry x="10" width="120" height="60" as="geometry" />
        </mxCell>
        <mxCell id="pnGsnYiNcxj166RtXO6O-8" value="" style="verticalLabelPosition=bottom;sketch=0;aspect=fixed;html=1;verticalAlign=top;strokeColor=none;align=center;outlineConnect=0;shape=mxgraph.citrix.process;" vertex="1" parent="pnGsnYiNcxj166RtXO6O-13">
          <mxGeometry y="71.66000000000008" width="28.42" height="33.88" as="geometry" />
        </mxCell>
        <mxCell id="pnGsnYiNcxj166RtXO6O-9" value="Dispatch: When an envelope is&lt;br&gt;&amp;nbsp;received it send it to the right emmiter" style="text;html=1;align=left;verticalAlign=middle;resizable=0;points=[];autosize=1;strokeColor=none;fillColor=none;" vertex="1" parent="pnGsnYiNcxj166RtXO6O-13">
          <mxGeometry x="45" y="73.60000000000008" width="220" height="30" as="geometry" />
        </mxCell>
        <mxCell id="pnGsnYiNcxj166RtXO6O-6" style="edgeStyle=orthogonalEdgeStyle;rounded=0;orthogonalLoop=1;jettySize=auto;html=1;exitX=1;exitY=0.75;exitDx=0;exitDy=0;" edge="1" parent="1" source="9_87h270WvveJxzQN95r-25">
          <mxGeometry relative="1" as="geometry">
            <mxPoint x="300" y="450" as="targetPoint" />
            <Array as="points">
              <mxPoint x="100" y="440" />
              <mxPoint x="280" y="440" />
              <mxPoint x="280" y="450" />
            </Array>
          </mxGeometry>
        </mxCell>
        <mxCell id="pnGsnYiNcxj166RtXO6O-7" style="edgeStyle=orthogonalEdgeStyle;rounded=0;orthogonalLoop=1;jettySize=auto;html=1;exitX=1;exitY=1;exitDx=0;exitDy=0;entryX=0;entryY=1;entryDx=0;entryDy=0;" edge="1" parent="1" source="9_87h270WvveJxzQN95r-25" target="VwNAfn6jYMPkoOhHDSCv-4">
          <mxGeometry relative="1" as="geometry">
            <Array as="points">
              <mxPoint x="120" y="462" />
              <mxPoint x="318" y="462" />
            </Array>
          </mxGeometry>
        </mxCell>
        <mxCell id="pnGsnYiNcxj166RtXO6O-15" value="" style="group" vertex="1" connectable="0" parent="1">
          <mxGeometry x="261.58" y="302" width="555" height="160" as="geometry" />
        </mxCell>
        <mxCell id="9_87h270WvveJxzQN95r-13" value="" style="verticalLabelPosition=bottom;sketch=0;aspect=fixed;html=1;verticalAlign=top;strokeColor=none;align=center;outlineConnect=0;shape=mxgraph.citrix.process;" parent="pnGsnYiNcxj166RtXO6O-15" vertex="1">
          <mxGeometry x="311.5800000000001" y="110" width="26.84" height="32" as="geometry" />
        </mxCell>
        <mxCell id="9_87h270WvveJxzQN95r-14" value="StartEmitEnvelope:&lt;br&gt;Listents on envelopeChan &lt;br&gt;and emits the message&lt;br&gt;" style="text;html=1;align=left;verticalAlign=middle;resizable=0;points=[];autosize=1;strokeColor=none;fillColor=none;" parent="pnGsnYiNcxj166RtXO6O-15" vertex="1">
          <mxGeometry x="365.00000000000006" y="110" width="150" height="50" as="geometry" />
        </mxCell>
        <mxCell id="9_87h270WvveJxzQN95r-15" value="SetupConn: Connects&lt;br&gt;&amp;nbsp;with WSServer in metrics server" style="text;html=1;align=left;verticalAlign=middle;resizable=0;points=[];autosize=1;strokeColor=none;fillColor=none;" parent="pnGsnYiNcxj166RtXO6O-15" vertex="1">
          <mxGeometry x="365.00000000000006" y="65" width="190" height="30" as="geometry" />
        </mxCell>
        <mxCell id="pnGsnYiNcxj166RtXO6O-2" value="" style="sketch=0;outlineConnect=0;fontColor=#232F3E;gradientColor=none;strokeColor=#232F3E;fillColor=#ffffff;dashed=0;verticalLabelPosition=bottom;verticalAlign=top;align=center;html=1;fontSize=12;fontStyle=0;aspect=fixed;shape=mxgraph.aws4.resourceIcon;resIcon=mxgraph.aws4.run_command;" vertex="1" parent="pnGsnYiNcxj166RtXO6O-15">
          <mxGeometry x="300.00000000000006" y="50" width="60" height="60" as="geometry" />
        </mxCell>
        <mxCell id="pnGsnYiNcxj166RtXO6O-12" value="" style="group" vertex="1" connectable="0" parent="pnGsnYiNcxj166RtXO6O-15">
          <mxGeometry width="300" height="160" as="geometry" />
        </mxCell>
        <mxCell id="VwNAfn6jYMPkoOhHDSCv-5" value="" style="group" parent="pnGsnYiNcxj166RtXO6O-12" vertex="1" connectable="0">
          <mxGeometry y="20" width="300" height="140" as="geometry" />
        </mxCell>
        <mxCell id="VwNAfn6jYMPkoOhHDSCv-1" value="EnvelopProcessor" style="shape=process;whiteSpace=wrap;html=1;backgroundOutline=1;" parent="VwNAfn6jYMPkoOhHDSCv-5" vertex="1">
          <mxGeometry width="243.75" height="93.33333333333333" as="geometry" />
        </mxCell>
        <mxCell id="VwNAfn6jYMPkoOhHDSCv-2" value="EnvelopProcessor" style="shape=process;whiteSpace=wrap;html=1;backgroundOutline=1;" parent="VwNAfn6jYMPkoOhHDSCv-5" vertex="1">
          <mxGeometry x="18.75" y="15.555555555555555" width="243.75" height="93.33333333333333" as="geometry" />
        </mxCell>
        <mxCell id="VwNAfn6jYMPkoOhHDSCv-3" value="EnvelopProcessor" style="shape=process;whiteSpace=wrap;html=1;backgroundOutline=1;" parent="VwNAfn6jYMPkoOhHDSCv-5" vertex="1">
          <mxGeometry x="37.5" y="31.11111111111111" width="243.75" height="93.33333333333333" as="geometry" />
        </mxCell>
        <mxCell id="VwNAfn6jYMPkoOhHDSCv-4" value="&lt;b&gt;emiter&lt;/b&gt;" style="shape=process;whiteSpace=wrap;html=1;backgroundOutline=1;" parent="VwNAfn6jYMPkoOhHDSCv-5" vertex="1">
          <mxGeometry x="56.25" y="46.666666666666664" width="243.75" height="93.33333333333333" as="geometry" />
        </mxCell>
        <mxCell id="VwNAfn6jYMPkoOhHDSCv-8" value="- Accept(envelop)&lt;br&gt;- Emit(envelop)" style="text;html=1;align=left;verticalAlign=middle;resizable=0;points=[];autosize=1;strokeColor=none;fillColor=none;" parent="VwNAfn6jYMPkoOhHDSCv-5" vertex="1">
          <mxGeometry x="133.75" y="103.88999999999999" width="110" height="30" as="geometry" />
        </mxCell>
        <mxCell id="pnGsnYiNcxj166RtXO6O-1" value="1..MetricServerCount" style="text;html=1;align=center;verticalAlign=middle;resizable=0;points=[];autosize=1;strokeColor=none;fillColor=none;" vertex="1" parent="pnGsnYiNcxj166RtXO6O-12">
          <mxGeometry x="10" width="130" height="20" as="geometry" />
        </mxCell>
        <mxCell id="pnGsnYiNcxj166RtXO6O-21" value="" style="group" vertex="1" connectable="0" parent="1">
          <mxGeometry x="29.999999999999996" y="120" width="281.88" height="143.33000000000004" as="geometry" />
        </mxCell>
        <mxCell id="pnGsnYiNcxj166RtXO6O-16" value="&lt;b&gt;Nozzle&lt;/b&gt;" style="shape=process;whiteSpace=wrap;html=1;backgroundOutline=1;" vertex="1" parent="pnGsnYiNcxj166RtXO6O-21">
          <mxGeometry x="8.129999999999999" y="19.996666666666698" width="243.75" height="93.33333333333333" as="geometry" />
        </mxCell>
        <mxCell id="pnGsnYiNcxj166RtXO6O-17" value="&lt;b&gt;Nozzle&lt;/b&gt;" style="shape=process;whiteSpace=wrap;html=1;backgroundOutline=1;" vertex="1" parent="pnGsnYiNcxj166RtXO6O-21">
          <mxGeometry x="18.13" y="29.996666666666698" width="243.75" height="93.33333333333333" as="geometry" />
        </mxCell>
        <mxCell id="pnGsnYiNcxj166RtXO6O-18" value="&lt;b&gt;Nozzle&lt;/b&gt;" style="shape=process;whiteSpace=wrap;html=1;backgroundOutline=1;" vertex="1" parent="pnGsnYiNcxj166RtXO6O-21">
          <mxGeometry x="28.13" y="39.9966666666667" width="243.75" height="93.33333333333333" as="geometry" />
        </mxCell>
        <mxCell id="pnGsnYiNcxj166RtXO6O-19" value="&lt;b&gt;Nozzle&lt;/b&gt;" style="shape=process;whiteSpace=wrap;html=1;backgroundOutline=1;" vertex="1" parent="pnGsnYiNcxj166RtXO6O-21">
          <mxGeometry x="38.129999999999995" y="49.9966666666667" width="243.75" height="93.33333333333333" as="geometry" />
        </mxCell>
        <mxCell id="pnGsnYiNcxj166RtXO6O-20" value="1..NozzleCount" style="text;html=1;align=center;verticalAlign=middle;resizable=0;points=[];autosize=1;strokeColor=none;fillColor=none;" vertex="1" parent="pnGsnYiNcxj166RtXO6O-21">
          <mxGeometry width="100" height="20" as="geometry" />
        </mxCell>
        <mxCell id="pnGsnYiNcxj166RtXO6O-22" value="" style="group" vertex="1" connectable="0" parent="1">
          <mxGeometry x="370" y="170" width="453.75" height="93.33" as="geometry" />
        </mxCell>
        <mxCell id="9_87h270WvveJxzQN95r-39" value="" style="verticalLabelPosition=bottom;sketch=0;aspect=fixed;html=1;verticalAlign=top;strokeColor=none;align=center;outlineConnect=0;shape=mxgraph.citrix.process;" parent="pnGsnYiNcxj166RtXO6O-22" vertex="1">
          <mxGeometry x="249.59138097537422" y="0.0033332142856686234" width="28.30335586673105" height="33.74094640270401" as="geometry" />
        </mxCell>
        <mxCell id="9_87h270WvveJxzQN95r-40" value="Start: Revtrives and &lt;br&gt;caches appIDs ever x interval" style="text;html=1;align=left;verticalAlign=middle;resizable=0;points=[];autosize=1;strokeColor=none;fillColor=none;" parent="pnGsnYiNcxj166RtXO6O-22" vertex="1">
          <mxGeometry x="284.4477305649445" y="3.883194642857093" width="170" height="30" as="geometry" />
        </mxCell>
        <mxCell id="pnGsnYiNcxj166RtXO6O-25" value="" style="group" vertex="1" connectable="0" parent="1">
          <mxGeometry x="450" y="490" width="270" height="70" as="geometry" />
        </mxCell>
        <mxCell id="pnGsnYiNcxj166RtXO6O-26" value="" style="strokeWidth=2;outlineConnect=0;dashed=0;align=center;fontSize=8;fillColor=#c0f5a9;verticalLabelPosition=bottom;verticalAlign=top;shape=mxgraph.eip.envelope_wrapper;" vertex="1" parent="pnGsnYiNcxj166RtXO6O-25">
          <mxGeometry y="25" width="40" height="20" as="geometry" />
        </mxCell>
        <mxCell id="pnGsnYiNcxj166RtXO6O-27" value="" style="strokeWidth=2;outlineConnect=0;dashed=0;align=center;fontSize=8;fillColor=#c0f5a9;verticalLabelPosition=bottom;verticalAlign=top;shape=mxgraph.eip.envelope_wrapper;" vertex="1" parent="pnGsnYiNcxj166RtXO6O-25">
          <mxGeometry y="50" width="40" height="20" as="geometry" />
        </mxCell>
        <mxCell id="pnGsnYiNcxj166RtXO6O-28" value="Gauge(memory, memory_usg, CPU)" style="text;html=1;align=center;verticalAlign=middle;resizable=0;points=[];autosize=1;strokeColor=none;fillColor=none;" vertex="1" parent="pnGsnYiNcxj166RtXO6O-25">
          <mxGeometry x="40" y="25" width="210" height="20" as="geometry" />
        </mxCell>
        <mxCell id="pnGsnYiNcxj166RtXO6O-29" value="Timer (httpStartStop)&lt;br&gt;" style="text;html=1;align=center;verticalAlign=middle;resizable=0;points=[];autosize=1;strokeColor=none;fillColor=none;" vertex="1" parent="pnGsnYiNcxj166RtXO6O-25">
          <mxGeometry x="40" y="50" width="130" height="20" as="geometry" />
        </mxCell>
        <mxCell id="pnGsnYiNcxj166RtXO6O-30" value="Loggregator via GRPC" style="rounded=0;whiteSpace=wrap;html=1;" vertex="1" parent="1">
          <mxGeometry x="-380" y="140" width="120" height="60" as="geometry" />
        </mxCell>
        <mxCell id="pnGsnYiNcxj166RtXO6O-37" value="" style="edgeStyle=orthogonalEdgeStyle;rounded=0;orthogonalLoop=1;jettySize=auto;html=1;entryX=1;entryY=0.75;entryDx=0;entryDy=0;" edge="1" parent="1" source="pnGsnYiNcxj166RtXO6O-16" target="pnGsnYiNcxj166RtXO6O-30">
          <mxGeometry relative="1" as="geometry" />
        </mxCell>
        <mxCell id="pnGsnYiNcxj166RtXO6O-38" value="by shardIID" style="edgeLabel;html=1;align=center;verticalAlign=middle;resizable=0;points=[];" vertex="1" connectable="0" parent="pnGsnYiNcxj166RtXO6O-37">
          <mxGeometry x="0.1662" y="1" relative="1" as="geometry">
            <mxPoint as="offset" />
          </mxGeometry>
        </mxCell>
        <mxCell id="VwNAfn6jYMPkoOhHDSCv-7" style="edgeStyle=orthogonalEdgeStyle;rounded=0;orthogonalLoop=1;jettySize=auto;html=1;exitX=0.5;exitY=1;exitDx=0;exitDy=0;entryX=0.5;entryY=0;entryDx=0;entryDy=0;" parent="1" source="VwNAfn6jYMPkoOhHDSCv-4" target="VwNAfn6jYMPkoOhHDSCv-6" edge="1">
          <mxGeometry relative="1" as="geometry">
            <mxPoint x="460" y="730" as="targetPoint" />
            <Array as="points">
              <mxPoint x="440" y="680" />
              <mxPoint x="440" y="680" />
            </Array>
          </mxGeometry>
        </mxCell>
        <mxCell id="pnGsnYiNcxj166RtXO6O-45" value="" style="edgeStyle=orthogonalEdgeStyle;rounded=0;orthogonalLoop=1;jettySize=auto;html=1;" edge="1" parent="1" source="VwNAfn6jYMPkoOhHDSCv-11" target="pnGsnYiNcxj166RtXO6O-19">
          <mxGeometry relative="1" as="geometry" />
        </mxCell>
        <mxCell id="pnGsnYiNcxj166RtXO6O-49" value="AppIDs[]" style="edgeLabel;html=1;align=center;verticalAlign=middle;resizable=0;points=[];" vertex="1" connectable="0" parent="pnGsnYiNcxj166RtXO6O-45">
          <mxGeometry x="0.0115" relative="1" as="geometry">
            <mxPoint as="offset" />
          </mxGeometry>
        </mxCell>
        <mxCell id="pnGsnYiNcxj166RtXO6O-50" style="edgeStyle=orthogonalEdgeStyle;rounded=0;orthogonalLoop=1;jettySize=auto;html=1;" edge="1" parent="1" source="pnGsnYiNcxj166RtXO6O-19" target="9_87h270WvveJxzQN95r-25">
          <mxGeometry relative="1" as="geometry" />
        </mxCell>
        <mxCell id="pnGsnYiNcxj166RtXO6O-51" value="EnvelopChan" style="edgeLabel;html=1;align=center;verticalAlign=middle;resizable=0;points=[];" vertex="1" connectable="0" parent="pnGsnYiNcxj166RtXO6O-50">
          <mxGeometry x="0.1377" y="-1" relative="1" as="geometry">
            <mxPoint as="offset" />
          </mxGeometry>
        </mxCell>
      </root>
    </mxGraphModel>
  </diagram>
</mxfile>
